<!DOCTYPE svg PUBLIC "-//W3C//DTD SVG 1.1//EN" "http://www.w3.org/Graphics/SVG/1.1/DTD/svg11.dtd">

<!-- Uploaded to: SVG Repo, www.svgrepo.com, Transformed by: SVG Repo Mixer Tools -->
<svg fill="#461901" height="800px" width="800px" version="1.1" id="Layer_1" xmlns="http://www.w3.org/2000/svg" xmlns:xlink="http://www.w3.org/1999/xlink" viewBox="0 0 512.00 512.00" xml:space="preserve" stroke="#461901" stroke-width="0.0051200099999999995">

<g id="SVGRepo_bgCarrier" stroke-width="0"/>

<g id="SVGRepo_tracerCarrier" stroke-linecap="round" stroke-linejoin="round" stroke="#CCCCCC" stroke-width="8.192015999999999"/>

<g id="SVGRepo_iconCarrier"> <g> <g> <path d="M256.001,0c-42.049,0-84.478,11.874-84.478,38.399s42.429,38.399,84.478,38.399c42.049,0,84.478-11.874,84.478-38.399 S298.05,0,256.001,0z M256.001,47.542c-25.934,0-44.047-5.036-51.952-9.143c7.905-4.106,26.018-9.143,51.952-9.143 s44.047,5.036,51.952,9.143C300.049,42.505,281.935,47.542,256.001,47.542z"/> </g> </g> <g> <g> <path d="M488.167,30.845c-1.64-0.554-40.604-13.138-86.39,26.158c-31.135,26.72-50.766,91.456-62.73,151.009 c-4.323-4.816-9.056-9.622-14.217-14.419v-29.764c0-41.336-31.615-74.967-70.476-74.967s-70.476,33.63-70.476,74.967v32.883 c-3.901,3.764-7.536,7.535-10.923,11.309c-11.963-59.556-31.596-124.298-62.732-151.019 c-45.786-39.293-84.752-26.71-86.388-26.157c-6.63,2.248-10.737,8.878-9.799,15.815l27.307,201.87 c0.941,6.943,6.669,12.244,13.663,12.645l20.145,1.151c1.798,21.367,12.563,50.546,45.454,66.627 c15.737,7.694,28.155,13.401,37.055,17.033c12.103,25.09,28.84,49.142,45.254,65.264l-59.385,60.109 c-3.612,3.656-5.039,8.939-3.762,13.917c1.279,4.978,5.075,8.92,10,10.385l5.548,1.65c32.935,9.794,66.812,14.691,100.688,14.691 s67.752-4.898,100.688-14.691l5.548-1.65c4.925-1.464,8.721-5.407,10-10.385c1.277-4.978-0.152-10.262-3.762-13.917L309.09,411.25 c16.414-16.122,33.151-40.172,45.254-65.264c8.9-3.632,21.316-9.34,37.056-17.033c32.892-16.081,43.655-45.26,45.453-66.627 l20.145-1.151c6.994-0.399,12.722-5.702,13.663-12.645l27.307-201.87C498.904,39.723,494.797,33.093,488.167,30.845z M139.934,285.248c0.015,0.325,0.038,0.655,0.057,0.983c0.051,0.922,0.114,1.846,0.193,2.772c0.029,0.341,0.061,0.685,0.095,1.027 c0.095,0.986,0.205,1.973,0.331,2.962c0.034,0.266,0.064,0.532,0.101,0.8c0.348,2.591,0.788,5.181,1.312,7.759 c0.067,0.329,0.14,0.66,0.211,0.99c0.192,0.905,0.389,1.807,0.6,2.706c0.127,0.549,0.257,1.099,0.392,1.65 c0.044,0.184,0.085,0.373,0.132,0.559c-3.035-1.45-6.33-3.041-9.905-4.788c-33.385-16.322-29.195-50.643-29.015-51.993 c0.606-4.065-0.527-8.198-3.122-11.387c-2.592-3.189-6.409-5.139-10.513-5.373l-22.087-1.262L45.057,57.742 c10.436,0.717,26.941,5.01,46.113,21.464c23.047,19.779,44.223,79,58.304,162.84c-5.6,11.574-8.764,23.143-9.469,34.659 c-0.003,0.057-0.004,0.114-0.009,0.173c-0.094,1.592-0.148,3.18-0.148,4.769C139.848,282.841,139.882,284.042,139.934,285.248z M342.806,284.541c-0.023,0.448-0.053,0.9-0.088,1.357c-0.029,0.408-0.07,0.824-0.108,1.238 c-1.093,11.479-5.41,25.886-12.449,41.313c-0.152,0.332-0.249,0.676-0.375,1.014c-13.1,28.38-33.677,56.819-50.662,69.045 c-3.47,2.498-5.674,6.388-6.031,10.648c-0.358,4.263,1.166,8.467,4.171,11.506l52.818,53.463 c-48.801,11.486-99.364,11.486-148.165,0l52.818-53.463c3.005-3.041,4.529-7.244,4.17-11.505 c-0.357-4.26-2.561-8.151-6.031-10.648c-11.856-8.534-25.465-24.975-37.058-43.775H243.2c8.078,0,14.628-6.549,14.628-14.628 s-6.551-14.628-14.628-14.628h-62.686c-6.255-14.302-10.102-27.604-11.125-38.342c-0.038-0.414-0.078-0.829-0.108-1.238 c-0.035-0.458-0.064-0.91-0.088-1.357c-0.05-0.979-0.089-1.951-0.089-2.896c0-1.069,0.048-2.147,0.119-3.23 c0.019-0.281,0.039-0.562,0.063-0.843c0.082-1.001,0.186-2.006,0.328-3.016c0.013-0.094,0.02-0.187,0.034-0.281 c0.151-1.037,0.347-2.082,0.559-3.129c0.076-0.369,0.154-0.737,0.235-1.106c0.189-0.846,0.399-1.694,0.629-2.547 c0.157-0.576,0.325-1.151,0.497-1.726c0.168-0.565,0.345-1.131,0.532-1.698c0.199-0.603,0.399-1.207,0.617-1.807 c0.02-0.059,0.045-0.117,0.067-0.176c0.547-1.502,1.147-2.993,1.796-4.472c0.021-0.047,0.042-0.094,0.063-0.14 c7.522-17.033,21.442-32.385,33.743-43.649c3.025-2.771,4.748-6.685,4.748-10.788v-39.208c0-25.204,18.492-45.71,41.219-45.71 c22.728,0,41.219,20.506,41.219,45.71v36.249c0,4.194,1.799,8.186,4.943,10.964c12.504,11.046,26.553,25.873,34.925,42.385 c0.151,0.298,0.307,0.597,0.453,0.894c0.32,0.65,0.629,1.302,0.93,1.956c0.238,0.518,0.464,1.036,0.689,1.552 c0.353,0.81,0.69,1.624,1.014,2.441c0.256,0.651,0.505,1.3,0.739,1.948c0.159,0.442,0.319,0.884,0.47,1.328 c0.344,1.018,0.667,2.033,0.954,3.043c0.08,0.279,0.148,0.562,0.224,0.841c0.238,0.884,0.456,1.764,0.652,2.642 c0.063,0.285,0.13,0.57,0.189,0.856c0.227,1.096,0.426,2.185,0.584,3.269c0.026,0.177,0.042,0.354,0.067,0.531 c0.127,0.939,0.228,1.872,0.304,2.803c0.023,0.287,0.047,0.573,0.066,0.862c0.072,1.09,0.12,2.175,0.12,3.252 C342.895,282.59,342.856,283.563,342.806,284.541z M443.283,232.653l-22.087,1.262c-4.105,0.236-7.927,2.133-10.521,5.322 c-2.592,3.189-3.733,7.27-3.129,11.335c0.196,1.453,4.385,35.773-28.998,52.096c-3.574,1.747-6.869,3.338-9.905,4.788 c0.047-0.186,0.088-0.374,0.133-0.56c0.135-0.552,0.265-1.102,0.392-1.65c0.209-0.9,0.408-1.802,0.6-2.706 c0.069-0.331,0.143-0.661,0.211-0.99c0.524-2.576,0.964-5.167,1.312-7.759c0.035-0.268,0.067-0.534,0.101-0.8 c0.124-0.989,0.236-1.975,0.331-2.962c0.034-0.342,0.066-0.686,0.095-1.027c0.079-0.926,0.142-1.849,0.193-2.772 c0.018-0.328,0.042-0.657,0.057-0.983c0.053-1.205,0.086-2.406,0.086-3.602c0-1.559-0.056-3.119-0.145-4.68 c-0.006-0.104-0.009-0.209-0.016-0.313c-0.709-11.507-3.875-23.06-9.463-34.613c14.081-83.837,35.256-143.057,58.302-162.836 c19.166-16.449,35.63-20.75,46.111-21.454L443.283,232.653z"/> </g> </g> <g> <g> <path d="M256.001,184.316c-8.078,0-14.628,6.549-14.628,14.628v10.971c0,8.079,6.551,14.628,14.628,14.628 s14.628-6.549,14.628-14.628v-10.971C270.629,190.865,264.078,184.316,256.001,184.316z"/> </g> </g> <g> <g> <path d="M301.419,337.241c-0.19-0.922-0.468-1.843-0.834-2.735c-0.366-0.878-0.819-1.726-1.346-2.516 c-0.525-0.805-1.14-1.551-1.814-2.224c-0.673-0.673-1.419-1.287-2.224-1.814c-0.79-0.527-1.638-0.98-2.531-1.346 c-0.878-0.366-1.798-0.658-2.734-0.834c-1.887-0.38-3.833-0.38-5.705,0c-0.936,0.176-1.858,0.468-2.735,0.834 c-0.892,0.366-1.739,0.819-2.529,1.346c-0.806,0.527-1.552,1.141-2.225,1.814c-2.721,2.721-4.286,6.48-4.286,10.342 c0,0.951,0.101,1.916,0.293,2.853c0.174,0.936,0.467,1.858,0.832,2.735c0.367,0.892,0.822,1.741,1.347,2.531 c0.527,0.805,1.141,1.551,1.814,2.224s1.419,1.287,2.225,1.814c0.79,0.527,1.637,0.98,2.529,1.346 c0.879,0.366,1.799,0.644,2.735,0.834s1.902,0.293,2.853,0.293c0.949,0,1.916-0.102,2.852-0.293s1.858-0.468,2.734-0.834 c0.892-0.366,1.741-0.819,2.531-1.346c0.805-0.527,1.551-1.141,2.224-1.814c0.674-0.673,1.289-1.419,1.814-2.224 c0.527-0.79,0.98-1.638,1.346-2.531c0.366-0.878,0.644-1.799,0.834-2.735c0.19-0.936,0.293-1.902,0.293-2.853 C301.711,339.157,301.609,338.192,301.419,337.241z"/> </g> </g> </g>

</svg>